<svg xmlns="http://www.w3.org/2000/svg" width="163.16262817382812" height="243.98663330078125" viewBox="-1.8928947448730469 -21.129640579223633 163.16262817382812 243.98663330078125"><title>Neo4j Graph Visualization</title><desc>Created using Neo4j (http://www.neo4j.com/)</desc><g class="layer relationships"><g class="relationship" transform="translate(132.2697367980712 7.870359655474855) rotate(522.2515978869983)"><path class="outline" fill="#A5ABB6" stroke="none" d="M 21.40063509461097,12.933012701892217 L 21.90063509461097,12.06698729810778 A 60.02874567286268 60.02874567286268 0 0 0 23.510151396101122,12.963594525407629 L 23.036963822105516,13.844556227081519 A 61.02874567286268 61.02874567286268 0 0 1 21.40063509461097,12.933012701892217 Z M 77.42857231379755,15.520318144616184 L 77.01051416592871,14.611897875687497 A 60.02874567286268 60.02874567286268 0 0 0 78.6721729477608,13.816072934152503 L 77.33495535058478,11.13058431980263 L 85.16118264743984,11.143479976466782 L 80.45512974399549,17.396724419952335 L 79.11791214681946,14.711235805602461 A 61.02874567286268 61.02874567286268 0 0 1 77.42857231379755,15.520318144616184"/><text text-anchor="middle" pointer-events="none" font-size="8px" fill="#000000" x="50.05105016053447" y="23.58060754807976" transform="rotate(180 50.05105016053447 20.58060754807976)" font-family="sans-serif">PublicTrans…</text></g><g class="relationship" transform="translate(29.847935896707046 40.65268757439851) rotate(451.4726644214212)"><path class="outline" fill="#A5ABB6" stroke="none" d="M 25 0.5 L 40.15556610973533 0.5 L 40.15556610973533 -0.5 L 25 -0.5 Z M 59.49150360973533 0.5 L 74.64706971947066 0.5 L 74.64706971947066 3.5 L 81.64706971947066 0 L 74.64706971947066 -3.5 L 74.64706971947066 -0.5 L 59.49150360973533 -0.5 Z"/><text text-anchor="middle" pointer-events="none" font-size="8px" fill="#000000" x="49.82353485973533" y="3" transform="rotate(180 49.82353485973533 0)" font-family="sans-serif">trek</text></g><g class="relationship" transform="translate(27.107104819949136 147.26453177924432) rotate(385.7415926567418)"><path class="outline" fill="#A5ABB6" stroke="none" d="M 25 0.5 L 40.4712860734189 0.5 L 40.4712860734189 -0.5 L 25 -0.5 Z M 59.8072235734189 0.5 L 75.2785096468378 0.5 L 75.2785096468378 3.5 L 82.2785096468378 0 L 75.2785096468378 -3.5 L 75.2785096468378 -0.5 L 59.8072235734189 -0.5 Z"/><text text-anchor="middle" pointer-events="none" font-size="8px" fill="#000000" x="50.1392548234189" y="3" font-family="sans-serif">trek</text></g><g class="relationship" transform="translate(132.2697367980712 7.870359655474855) rotate(522.2515978869983)"><path class="outline" fill="#A5ABB6" stroke="none" d="M 25 0.5 L 39.264267841844394 0.5 L 39.264267841844394 -0.5 L 25 -0.5 Z M 61.275986591844394 0.5 L 75.54025443368879 0.5 L 75.54025443368879 3.5 L 82.54025443368879 0 L 75.54025443368879 -3.5 L 75.54025443368879 -0.5 L 61.275986591844394 -0.5 Z"/><text text-anchor="middle" pointer-events="none" font-size="8px" fill="#000000" x="50.270127216844394" y="3" transform="rotate(180 50.270127216844394 0)" font-family="sans-serif">road</text></g><g class="relationship" transform="translate(132.2697367980712 7.870359655474855) rotate(522.2515978869983)"><path class="outline" fill="#A5ABB6" stroke="none" d="M 21.40063509461097,-12.933012701892217 L 21.90063509461097,-12.06698729810778 A 60.02874567286268 60.02874567286268 0 0 1 40.54711651707665,-19.0230944234996 L 40.35774238828981,-20.004999428755312 A 61.02874567286268 61.02874567286268 0 0 0 21.40063509461097,-12.933012701892217 Z M 59.761407892808954,-20.602810830453812 L 59.63283897212645,-19.61111025435509 A 60.02874567286268 60.02874567286268 0 0 1 78.6721729477608,-13.816072934152503 L 77.33495535058478,-11.13058431980263 L 85.16118264743984,-11.143479976466782 L 80.45512974399549,-17.396724419952335 L 79.11791214681946,-14.711235805602461 A 61.02874567286268 61.02874567286268 0 0 0 59.761407892808954,-20.602810830453812"/><text text-anchor="middle" pointer-events="none" font-size="8px" fill="#000000" x="50.051050160534466" y="-17.58060754807976" transform="rotate(180 50.051050160534466 -20.58060754807976)" font-family="sans-serif">trek</text></g></g><g class="layer nodes"><g class="node" transform="translate(132.2697367980712,7.870359655474855)"><circle class="outline" cx="0" cy="0" r="25" fill="#F16667" stroke="#eb2728" stroke-width="2px"/><text text-anchor="middle" pointer-events="none" font-family="sans-serif" dy="1.5625" font-size="25" fill="#FFFFFF"/><text text-anchor="middle" pointer-events="none" y="5" font-size="10px" fill="#FFFFFF" font-family="sans-serif"> Darjeeling</text></g><g class="node" transform="translate(123.73950739929607,193.85699258343124)"><circle class="outline" cx="0" cy="0" r="25" fill="#D9C8AE" stroke="#c0a378" stroke-width="2px"/><text text-anchor="middle" pointer-events="none" font-family="sans-serif" dy="1.5625" font-size="25" fill="#604A0E"/><text text-anchor="middle" pointer-events="none" y="5" font-size="10px" fill="#604A0E" font-family="sans-serif"> Sandak…</text></g><g class="node" transform="translate(29.847935896707046,40.65268757439851)"><circle class="outline" cx="0" cy="0" r="25" fill="#F16667" stroke="#eb2728" stroke-width="2px"/><text text-anchor="middle" pointer-events="none" font-family="sans-serif" dy="1.5625" font-size="25" fill="#FFFFFF"/><text text-anchor="middle" pointer-events="none" y="5" font-size="10px" fill="#FFFFFF" font-family="sans-serif"> Rimbik</text></g><g class="node" transform="translate(27.107104819949136,147.26453177924432)"><circle class="outline" cx="0" cy="0" r="25" fill="#8DCC93" stroke="#5db665" stroke-width="2px"/><text text-anchor="middle" pointer-events="none" font-family="sans-serif" dy="1.5625" font-size="25" fill="#604A0E"/><text text-anchor="middle" pointer-events="none" y="5" font-size="10px" fill="#604A0E" font-family="sans-serif"> BhikeBh…</text></g></g></svg>